<svg xmlns="http://www.w3.org/2000/svg" viewBox="0 0 512 512" width="512" height="512">
  <!-- Background -->
  <rect width="512" height="512" rx="64" fill="url(#gradient)"/>
  
  <!-- Gradient Definition -->
  <defs>
    <linearGradient id="gradient" x1="0%" y1="0%" x2="100%" y2="100%">
      <stop offset="0%" style="stop-color:#667eea;stop-opacity:1" />
      <stop offset="100%" style="stop-color:#764ba2;stop-opacity:1" />
    </linearGradient>
    
    <!-- Drop shadow filter -->
    <filter id="shadow" x="-50%" y="-50%" width="200%" height="200%">
      <feDropShadow dx="0" dy="4" stdDeviation="8" flood-opacity="0.25"/>
    </filter>
  </defs>
  
  <!-- Palette Icon -->
  <g transform="translate(256, 256)">
    <!-- Palette Shape -->
    <path d="M -100 -40 
             C -100 -100, -40 -120, 20 -120
             C 100 -120, 140 -60, 140 20
             C 140 80, 100 120, 40 120
             C 20 120, 0 100, 0 80
             L 0 40
             C 0 20, -20 0, -40 0
             L -80 0
             C -100 0, -120 -20, -120 -40
             C -120 -60, -100 -80, -80 -80
             Z" 
          fill="white" 
          filter="url(#shadow)"/>
    
    <!-- Paint dots -->
    <circle cx="-40" cy="-60" r="15" fill="#FF6B6B"/>
    <circle cx="0" cy="-70" r="15" fill="#4ECDC4"/>
    <circle cx="40" cy="-60" r="15" fill="#FFE66D"/>
    <circle cx="60" cy="-20" r="15" fill="#95E1D3"/>
    <circle cx="50" cy="20" r="15" fill="#A8E6CF"/>
    <circle cx="10" cy="40" r="15" fill="#C7CEEA"/>
    
    <!-- Brush -->
    <g transform="rotate(-45) translate(60, 0)">
      <rect x="-8" y="0" width="16" height="80" fill="#8B4513" rx="2"/>
      <rect x="-10" y="-10" width="20" height="20" fill="#C0C0C0" rx="2"/>
      <path d="M -6 -10 L 0 -25 L 6 -10" fill="#FFB6C1"/>
    </g>
  </g>
</svg>